<svg width="35" height="35" fill="none" xmlns="http://www.w3.org/2000/svg"><path d="M19 8.18V6.089c0-1.337 1.206-2.318 2.45-1.993l7.882 2.063a2.446 2.446 0 0 1 1.341.909 2.65 2.65 0 0 1 .523 1.582v13.873c0 1.337-1.207 2.318-2.451 1.992l-4.663-1.22" stroke="#ADEF9A" stroke-width="1.675" stroke-linecap="round" stroke-linejoin="round"/><path d="M11.583 11.294v-2.01c0-1.338 1.207-2.32 2.451-1.994l7.881 2.063a2.446 2.446 0 0 1 1.342.909 2.65 2.65 0 0 1 .522 1.582v13.873c0 1.338-1.206 2.319-2.45 1.992l-4.683-1.225" stroke="#ADEF9A" stroke-width="1.675" stroke-linecap="square" stroke-linejoin="round"/><path d="M6.03 28.841a2.446 2.446 0 0 1-1.34-.909 2.65 2.65 0 0 1-.523-1.582V12.477c0-1.338 1.206-2.318 2.45-1.992l7.882 2.062a2.447 2.447 0 0 1 1.341.91 2.65 2.65 0 0 1 .523 1.58V28.91c0 1.338-1.207 2.319-2.451 1.993L6.03 28.841Z" stroke="#ADEF9A" stroke-width="1.675" stroke-linecap="round" stroke-linejoin="round"/></svg>