<svg width="35" height="35" fill="none" xmlns="http://www.w3.org/2000/svg"><path d="M10.656 22.696v-2.098a.657.657 0 0 0-1.312 0v2.098a2.406 2.406 0 1 0 1.33.004l-.018-.004Zm18.271-4.005-3.537 1.966L20.786 18l4.6-2.656 3.546 1.966a.657.657 0 0 0 .639-1.146l-.003-.002-2.856-1.584 2.28-1.316a.656.656 0 1 0-.66-1.135l.003-.002-2.277 1.315.052-3.263v-.01a.657.657 0 0 0-.646-.657h-.02a.649.649 0 0 0-.648.646l-.064 4.047-4.605 2.659v-5.313l3.477-2.083a.656.656 0 0 0-.678-1.125l.003-.002-2.803 1.68V7.385a.657.657 0 0 0-1.312 0v2.63l-2.796-1.679a.656.656 0 0 0-.678 1.123l.003.002 3.47 2.085v5.314l-4.66-2.69V9.253c0-5.465-8.312-5.465-8.312 0v11.584a5.886 5.886 0 1 0 9.42 6.79l.016-.035a.64.64 0 0 0 .4.16.65.65 0 0 0 .34-.095l-.002.002 2.799-1.68v2.632a.656.656 0 0 0 1.312 0V25.98l2.801 1.677a.655.655 0 0 0 .676-1.123l-.002-.003-3.475-2.08v-5.316l4.6 2.656.071 4.055a.657.657 0 0 0 .656.644h.013a.657.657 0 0 0 .644-.656v-.012l-.057-3.264 2.28 1.317a.658.658 0 0 0 .895-.237l.002-.004a.656.656 0 0 0-.238-.895l-.004-.002-2.276-1.314 2.85-1.585a.657.657 0 1 0-.643-1.146l.004-.002.004.001ZM18.16 18l-4.003 2.31v-4.622L18.16 18ZM10 29.594a4.594 4.594 0 0 1-3.067-8.015l.005-.004.005-.01a.647.647 0 0 0 .202-.418v-.002c0-.012.006-.021.007-.034l.005-.025V9.256a2.7 2.7 0 0 1 2.852-2.85h-.007a2.7 2.7 0 0 1 2.843 2.858v-.008 11.83l.005.026c0 .012.005.02.007.033a.647.647 0 0 0 .201.419l.005.01A4.594 4.594 0 0 1 10 29.592v.002Zm5.755-3.306c.096-.396.151-.849.151-1.315a5.772 5.772 0 0 0-1.174-3.498l.01.014 4.075-2.352v5.313l-3.062 1.838Z" fill="#ADEF9A"/></svg>