<svg width="103" height="26" fill="none" xmlns="http://www.w3.org/2000/svg"><g fill="#C30B13"><path d="m67.174 25.709 5.645.005c.996.017 1.263.221 1.494-.496L77.77 7.776c.305-1.668-.245-1.307 4.497-1.307 4.287 0 5.043 4.36 2.184 6.661-2.195 1.766-3.974 1.3-7.325 1.3.016.71.181 1.027.44 1.55l3.562 8.38c.182.453.41.909.642 1.349h8.127l-2.251-5.213c-.275-.641-.675-1.198-.734-1.92.44-.117.82-.506 1.186-.803.95-.773 2.084-2.179 2.727-3.245 2.223-3.685 2.602-8.711-.304-11.835C89.303 1.383 87.251 0 85.253 0h-12.44c-.633 0-.655 1.357-.985 2.83-.252 1.124-.37 2.285-.656 3.324L67.174 25.71ZM39.807 25.709h6.966c.522 0 .636-.457.842-.817 1.19-2.082 1.01-1.672 3.636-1.671h6.966l-2.653-6.469H52.08l5.307-8.459 2.488 17.416h6.966L65.2 16.073a64.186 64.186 0 0 1-.559-3.255c-.065-.431-.207-.994-.323-1.503L62.364 0h-6.137L40.205 24.283c-.61.916-1.276 1.426-.398 1.426ZM26.538 7.298h7.464c-.028 1.223-2.28 8.643-2.692 10.246l-2.118 8.165h6.966l1.258-4.547c.562-2.238 3.533-13.002 3.552-13.864 8.623 0 7.59.586 8.06-1.56.269-1.22 1.373-4.82 1.394-5.738h-22.06c-.053.636-.256 1.13-.427 1.729-.2.7-.287 1.142-.466 1.856-.274 1.096-.905 2.55-.931 3.713ZM0 25.709h20.069l1.805-6.694c.108-.367.296-.604-.312-.604H9.122c.015-.67.277-1.53.498-1.99h9.288c.207-.89 1.645-5.666 1.659-6.303H4.478l-3.45 11.477C.7 22.811 0 24.742 0 25.71ZM5.308 7.132H25.21C25.315 5.89 27.035 1.1 27.035 0H7.464L6.408 3.588a22.288 22.288 0 0 0-.534 1.789l-.566 1.755ZM91.058 25.709h6.966c.022-.985 1.093-5.372 1.305-6.656l.95-5.022c.142-.66.346-1.118.399-1.757h-6.966l-2.031 9.91c-.206 1.024-.623 2.309-.623 3.525ZM103 0h-6.8c-.118 1.415-1.944 8.8-2.108 10.208-.107.912.184.69.838.494l4.898-1.434c1.854-.563 1.498-.126 1.866-2.281C101.935 5.567 103 1.133 103 0Z"/></g></svg>