<svg width="21" height="21" fill="none" xmlns="http://www.w3.org/2000/svg"><g fill="#fff"><path d="m13.612 12.73-.399.419s-.947.997-3.533-1.725c-2.585-2.722-1.638-3.72-1.638-3.72l.25-.264c.62-.65.677-1.696.138-2.459l-1.103-1.56c-.668-.944-1.958-1.069-2.723-.263L3.23 4.604c-.379.399-.633.917-.602 1.491.078 1.47.706 4.632 4.21 8.32 3.716 3.913 7.203 4.068 8.629 3.928.45-.045.843-.288 1.159-.62l1.243-1.31c.839-.883.602-2.397-.471-3.015l-1.672-.962a1.71 1.71 0 0 0-2.114.293ZM11.602 1.645a.657.657 0 0 1 .754-.543l.13.026c.075.017.18.042.31.08.26.076.622.2 1.057.4.872.4 2.032 1.099 3.236 2.303 1.204 1.204 1.903 2.364 2.303 3.235.2.436.324.799.4 1.058a4.983 4.983 0 0 1 .098.398l.005.028a.67.67 0 0 1-.54.768.656.656 0 0 1-.752-.54l-.013-.06a3.683 3.683 0 0 0-.059-.227 6.48 6.48 0 0 0-.333-.878c-.34-.744-.954-1.771-2.037-2.854-1.083-1.083-2.11-1.697-2.855-2.038a6.469 6.469 0 0 0-.878-.333 5.03 5.03 0 0 0-.278-.07.664.664 0 0 1-.548-.753Z"/><path fill-rule="evenodd" clip-rule="evenodd" d="M11.8 4.663c.1-.348.463-.55.811-.45l-.18.63.18-.63h.002l.004.001.007.002.017.005.05.017c.038.014.09.034.154.061.128.055.302.14.516.266.428.253 1.013.674 1.7 1.361.687.687 1.107 1.272 1.36 1.7.128.214.212.388.267.516a2.578 2.578 0 0 1 .077.204l.006.017.002.007v.004s.001.001-.63.182l.631-.18a.656.656 0 0 1-1.26.369l-.002-.01a3.222 3.222 0 0 0-.22-.441c-.195-.33-.547-.827-1.16-1.44-.612-.612-1.11-.965-1.44-1.16a3.203 3.203 0 0 0-.44-.219l-.01-.003a.656.656 0 0 1-.442-.809Z"/></g></svg>